<?xml version="1.0" encoding="UTF-8"?>
<svg width="1116px" height="757px" viewBox="0 0 1116 757" version="1.1" xmlns="http://www.w3.org/2000/svg" xmlns:xlink="http://www.w3.org/1999/xlink">
    <!-- Generator: Sketch 55 (78076) - https://sketchapp.com -->
    <title>Artboard</title>
    <desc>Created with Sketch.</desc>
    <g id="Artboard" stroke="none" stroke-width="1" fill="none" fill-rule="evenodd">
        <g id="Group" transform="translate(68.000000, 240.000000)">
            <path d="M966.878049,267.770819 C947.926829,267.770819 935.136585,252.736872 935.136585,235.683767 C935.136585,218.623346 947.926829,203.618661 966.878049,203.618661 C985.829268,203.618661 998.619512,218.623346 998.619512,235.683767 C998.619512,252.736872 985.829268,267.770819 966.878049,267.770819 L966.878049,267.770819 Z M963.292683,235.522819 C963.292683,230.057925 960.380488,228.514293 957.826829,228.514293 C954.760976,228.514293 952.382927,230.057925 952.382927,235.522819 L952.382927,242.494767 L963.292683,242.494767 L963.292683,235.522819 Z M968.231707,242.494767 L985.653659,242.494767 L985.653659,248.13524 L947.253659,248.13524 L947.253659,234.147451 C947.253659,225.968398 950.839024,222.193451 957.826829,222.193451 C962.1,222.193451 965.52439,225.119767 966.014634,228.850819 L966.190244,228.850819 C966.702439,225.631872 969.614634,224.424767 974.904878,223.737082 C978.3,223.224977 984.285366,222.544609 985.653659,221.344819 L985.653659,228.002188 C982.060976,229.545819 976.946341,229.37024 972.680488,230.57003 C969.439024,231.572293 968.231707,233.291504 968.231707,237.037188 L968.231707,242.494767 Z M966.878049,209.756609 C951.519512,209.756609 940.258537,220.657135 940.258537,235.683767 C940.258537,250.710398 951.519512,261.625556 966.878049,261.625556 C982.236585,261.625556 993.490244,250.710398 993.490244,235.683767 C993.490244,220.657135 982.236585,209.756609 966.878049,209.756609 L966.878049,209.756609 Z" id="Fill-1" fill="#F47920" transform="translate(966.878049, 235.694740) rotate(-270.000000) translate(-966.878049, -235.694740) "></path>
            <polygon id="Fill-2" fill="#F47920" transform="translate(788.178659, 182.731351) rotate(-270.000000) translate(-788.178659, -182.731351) " points="872.877211 147.289278 831.389369 184.2844 872.877211 220.935619 872.877211 298.039278 788.182316 222.669766 703.480106 298.039278 703.480106 218.513668 744.631422 181.174644 703.480106 145.218546 703.480106 68.4478143 787.84579 143.477083 872.877211 67.423424"></polygon>
            <polygon id="Fill-3" fill="#F47920" transform="translate(598.790488, 134.008244) rotate(-270.000000) translate(-598.790488, -134.008244) " points="732.212147 208.075318 465.368726 208.075318 465.368726 59.9411713 524.85341 59.9411713 524.85341 145.324098 562.815042 145.324098 562.815042 59.9411713 620.046463 59.9411713 620.046463 145.324098 672.566515 145.324098 672.566515 59.9411713 732.212147 59.9411713"></polygon>
            <path d="M350.64878,-22.7472281 C350.64878,0.282877193 329.180488,14.5998772 306.768293,14.5998772 C282.819512,14.5998772 259.785366,2.14108772 259.785366,-22.7472281 C259.785366,-48.5646491 282.819512,-58.8433333 306.768293,-58.8433333 C329.495122,-58.8433333 350.64878,-47.9501228 350.64878,-22.7472281 L350.64878,-22.7472281 Z M279.885366,199.272351 C262.946341,195.321825 251.860976,182.182667 251.860976,165.773351 C251.860976,147.703351 262.602439,135.22993 279.885366,131.94514 L279.885366,199.272351 Z M124.390244,-60.6576491 L233.612195,-60.6576491 L233.612195,-59.9845965 C217.712195,-46.1431228 212.180488,-28.8632281 212.180488,-8.81796491 C212.180488,32.2675088 240.12439,63.1986667 277.039024,74.0699298 C236.356098,86.4555614 211.419512,118.403614 211.419512,165.773351 C211.419512,204.232456 228.687805,234.600298 256.836585,250.46093 L221.853659,250.46093 L221.853659,329.976246 L183.878049,329.976246 L183.878049,243.203667 L124.390244,243.203667 L124.390244,400.851614 L391.280488,400.851614 L391.280488,329.976246 L279.095122,329.976246 L279.095122,259.327667 C287.334146,261.434614 296.165854,262.561246 305.465854,262.561246 C361.141463,262.561246 400.207317,220.034561 400.207317,165.773351 C400.207317,120.13014 378.77561,90.0549298 339.717073,74.1577193 L339.717073,134.886088 C351.453659,143.116351 354.936585,149.342088 354.936585,165.773351 C354.936585,184.816351 338.319512,201.240298 318.607317,201.240298 L318.607317,77.5522456 C362.839024,72.1897719 400.968293,37.7470351 400.968293,-9.50564912 C400.968293,-29.8947544 390.936585,-48.5719649 373.997561,-59.9845965 L373.997561,-60.6576491 L391.280488,-60.6576491 L391.280488,-123.149123 L124.390244,-123.149123 L124.390244,-60.6576491 Z" id="Fill-4" fill="#472F92" transform="translate(262.679268, 138.851246) rotate(-270.000000) translate(-262.679268, -138.851246) "></path>
        </g>
    </g>
</svg>