<?xml version="1.0" encoding="UTF-8"?>
<svg width="64px" height="42px" viewBox="0 0 64 42" version="1.1" xmlns="http://www.w3.org/2000/svg" xmlns:xlink="http://www.w3.org/1999/xlink">
    <title>Mastercard</title>
    <defs>
        <path d="M4.0010007,0.515150752 C6.44343184,2.53274107 8,5.58459255 8,9 C8,12.4154075 6.44343184,15.4672589 4.0010007,17.4848492 C1.55699077,15.4680874 0,12.4158711 0,9 C0,5.62492653 1.52002091,2.60487296 3.91283995,0.587062086 Z" id="path-1"></path>
        <rect id="path-3" x="0" y="0" width="64" height="42" rx="3"></rect>
        <filter x="-0.8%" y="-1.2%" width="101.6%" height="102.4%" filterUnits="objectBoundingBox" id="filter-4">
            <feMorphology radius="1" operator="erode" in="SourceAlpha" result="shadowSpreadInner1"></feMorphology>
            <feOffset dx="0" dy="0" in="shadowSpreadInner1" result="shadowOffsetInner1"></feOffset>
            <feComposite in="shadowOffsetInner1" in2="SourceAlpha" operator="arithmetic" k2="-1" k3="1" result="shadowInnerInner1"></feComposite>
            <feColorMatrix values="0 0 0 0 0   0 0 0 0 0   0 0 0 0 0  0 0 0 0.1 0" type="matrix" in="shadowInnerInner1"></feColorMatrix>
        </filter>
    </defs>
    <g id="user-profile" stroke="none" stroke-width="1" fill="none" fill-rule="evenodd">
        <g id="billing-02" transform="translate(-152.000000, -409.000000)">
            <g id="add-new-card" transform="translate(100.000000, 380.000000)" fill-rule="nonzero" stroke="#E3E2E2" stroke-linecap="square" stroke-linejoin="round">
                <rect id="Rectangle" x="0" y="0" width="1241" height="420" rx="8"></rect>
            </g>
            <g id="card" transform="translate(100.000000, 380.000000)">
                <g id="Mastercard" transform="translate(52.000000, 29.000000)">
                    <rect id="Rectangle-6" fill="#F4F6F7" x="0" y="0" width="64" height="42" rx="3"></rect>
                    <g id="Oval-5-+-Oval-5-Copy-+-Oval-5-Copy-3" transform="translate(14.000000, 10.000000)">
                        <circle id="Oval-5" fill="#D8232A" cx="11" cy="11" r="11"></circle>
                        <path d="M25,0 C31.0751322,0 36,4.92486775 36,11 C36,17.0751322 31.0751322,22 25,22 C22.3404701,22 19.901383,21.056172 17.9994173,19.4851946 C20.4432542,17.4676071 22,14.4156023 22,11 C22,7.5843977 20.4432542,4.53239285 18.0005827,2.51480545 C19.901383,0.943828026 22.3404701,0 25,0 Z" id="Oval-5-Copy" fill="#ED9F2D"></path>
                        <g id="Rectangle-12" transform="translate(14.000000, 2.000000)">
                            <mask id="mask-2" fill="white">
                                <use xlink:href="#path-1"></use>
                            </mask>
                            <use id="Mask" fill="#D8232A" xlink:href="#path-1"></use>
                            <path d="M9,17 L9,18 L-1,18 L-1,17 L9,17 Z M9,15 L9,16 L-1,16 L-1,15 L9,15 Z M9,13 L9,14 L-1,14 L-1,13 L9,13 Z M9,11 L9,12 L-1,12 L-1,11 L9,11 Z M9,9 L9,10 L-1,10 L-1,9 L9,9 Z M9,7 L9,8 L-1,8 L-1,7 L9,7 Z M9,5 L9,6 L-1,6 L-1,5 L9,5 Z M9,3 L9,4 L-1,4 L-1,3 L9,3 Z M9,1 L9,2 L-1,2 L-1,1 L9,1 Z" fill="#ED9F2D" mask="url(#mask-2)"></path>
                        </g>
                    </g>
                    <g id="Rectangle-6-Copy">
                        <use fill-opacity="0" fill="#E5E5E5" fill-rule="evenodd" xlink:href="#path-3"></use>
                        <use fill="black" fill-opacity="1" filter="url(#filter-4)" xlink:href="#path-3"></use>
                    </g>
                </g>
            </g>
        </g>
    </g>
</svg>
