<?xml version="1.0" encoding="UTF-8"?>
<svg width="16px" height="16px" viewBox="0 0 16 16" version="1.1" xmlns="http://www.w3.org/2000/svg" xmlns:xlink="http://www.w3.org/1999/xlink">
    <title>Combined Shape</title>
    <g id="Symbols" stroke="none" stroke-width="1" fill="none" fill-rule="evenodd">
        <g id="16px_search" transform="translate(-4.000000, -4.000000)" fill="#182245" fill-rule="nonzero">
            <path d="M17.3173212,15.9024375 L19.7118169,18.2969331 C20.1030612,18.6881775 20.1030612,19.3205725 19.7118169,19.7118169 C19.516695,19.9069388 19.260535,20.005 19.004375,20.005 C18.748215,20.005 18.492055,19.9069388 18.2969331,19.7118169 L18.2969331,19.7118169 L15.9024375,17.3173213 C16.4317681,16.9060644 16.9060644,16.4317681 17.3173212,15.9024375 L17.3173212,15.9024375 Z M10.999375,3.995 C14.8617875,3.995 18.00375,7.1369625 18.00375,10.999375 C18.00375,14.8617875 14.8617875,18.00375 10.999375,18.00375 C7.1369625,18.00375 3.995,14.8617875 3.995,10.999375 C3.995,7.1369625 7.1369625,3.995 10.999375,3.995 Z M10.999375,5.99625 C8.24065188,5.99625 5.99625,8.24065188 5.99625,10.999375 C5.99625,13.7580981 8.24065188,16.0025 10.999375,16.0025 C13.7580981,16.0025 16.0025,13.7580981 16.0025,10.999375 C16.0025,8.24065188 13.7580981,5.99625 10.999375,5.99625 Z" id="Combined-Shape"></path>
        </g>
    </g>
</svg>
