<?xml version="1.0" encoding="UTF-8"?>
<svg width="64px" height="42px" viewBox="0 0 64 42" version="1.1" xmlns="http://www.w3.org/2000/svg" xmlns:xlink="http://www.w3.org/1999/xlink">
    <title>Visa</title>
    <defs>
        <rect id="path-1" x="0" y="0" width="64" height="42" rx="3"></rect>
        <filter x="-0.8%" y="-1.2%" width="101.6%" height="102.4%" filterUnits="objectBoundingBox" id="filter-2">
            <feMorphology radius="1" operator="erode" in="SourceAlpha" result="shadowSpreadInner1"></feMorphology>
            <feOffset dx="0" dy="0" in="shadowSpreadInner1" result="shadowOffsetInner1"></feOffset>
            <feComposite in="shadowOffsetInner1" in2="SourceAlpha" operator="arithmetic" k2="-1" k3="1" result="shadowInnerInner1"></feComposite>
            <feColorMatrix values="0 0 0 0 0   0 0 0 0 0   0 0 0 0 0  0 0 0 0.1 0" type="matrix" in="shadowInnerInner1"></feColorMatrix>
        </filter>
    </defs>
    <g id="user-profile" stroke="none" stroke-width="1" fill="none" fill-rule="evenodd">
        <g id="billing-02" transform="translate(-152.000000, -289.000000)">
            <g id="card" transform="translate(100.000000, 260.000000)">
                <rect id="Rectangle" stroke="#E3E2E2" stroke-linecap="square" stroke-linejoin="round" fill-rule="nonzero" x="0" y="0" width="1240" height="100" rx="8"></rect>
                <g id="Visa" transform="translate(52.000000, 29.000000)">
                    <rect id="Rectangle-6" fill="#F4F6F7" x="0" y="0" width="64" height="42" rx="3"></rect>
                    <path d="M0,3.00032973 C0,1.34329338 1.33673096,0 3.00101185,0 L60.9989882,0 C62.6564012,0 64,1.3486445 64,3.00032973 L64,10 L0,10 L0,3.00032973 Z" id="Rectangle-6-Copy-2" fill="#4095DB"></path>
                    <path d="M0,32 L64,32 L64,38.9996703 C64,40.6567066 62.663269,42 60.9989882,42 L3.00101185,42 C1.34359877,42 0,40.6513555 0,38.9996703 L0,32 Z" id="Rectangle-6-Copy-3" fill="#F4B662"></path>
                    <g id="visa-logo" transform="translate(31.000000, 21.000000) scale(1, -1) translate(-31.000000, -21.000000) translate(13.000000, 15.000000)" fill="#0071CE">
                        <path d="M20.7670793,0 C23.8093577,0 25.7861515,1.55852182 25.8093358,3.9708142 C25.8197688,5.29584961 25.048228,6.30035624 23.3773015,7.12957638 C22.3654719,7.66848363 21.7444636,8.0255805 21.7515845,8.57118331 C21.7522469,9.05446586 22.2762123,9.5715696 23.4102564,9.5715696 C24.3573355,9.58736426 25.0429287,9.36126014 25.5771615,9.12502683 L25.837157,8.9919739 L26.2293031,11.5120821 C25.6568162,11.7453968 24.7564369,12 23.634813,12 C20.7722129,12 18.757165,10.4222499 18.7404392,8.16326881 C18.722223,6.49246749 20.1783633,5.56041032 21.2761405,5.00502167 C22.4043885,4.43572686 22.783452,4.07141937 22.7789807,3.56238465 C22.7711974,2.78381046 21.8784358,2.42705696 21.0459534,2.42705696 C19.8867378,2.42705696 19.2708631,2.60268681 18.3186503,3.03669685 L17.9462109,3.22176917 L17.5413135,0.619597408 C18.2164738,0.295806687 19.4680954,0.0147645822 20.7670793,0 Z M15.7268099,0.172367913 L17.5380015,11.7974162 L14.6426121,11.7974162 L12.831255,0.172367913 L15.7268099,0.172367913 Z M32.4884048,4.29391819 C32.3739737,4.87505902 31.8183782,7.64977038 31.8183782,7.64977038 L31.8183782,7.64977038 L31.6229676,8.65238851 C31.4767408,8.21666166 31.2212166,7.51259711 31.238108,7.54315636 C31.238108,7.54315636 30.3246461,4.96210138 30.0846885,4.29391819 L30.0846885,4.29391819 Z M5.84648431,0.182497103 L8.9107879,0.184385596 L13.4704796,11.7876304 L10.4022015,11.7876304 L7.56825065,3.86214001 L7.26470177,5.47319627 L7.26470177,5.47319627 L6.25005693,10.8147131 C6.07501538,11.5513971 5.56628534,11.7697755 4.93749369,11.7955277 L0.268338932,11.7955277 L0.229753614,11.554659 C1.36624811,11.2534467 2.38245159,10.819028 3.2729562,10.2786939 L5.84648431,0.182497103 Z M28.6427899,0.168247564 C28.6427899,0.168247564 28.766826,0.526546204 28.9049382,0.924159835 L29.0094436,1.2247575 C29.113152,1.52275849 29.2093151,1.79801708 29.2515437,1.91596206 L29.8650135,1.91510235 C29.9263742,1.91499854 29.9908994,1.91488759 30.0580323,1.9147708 L30.4876685,1.91401037 C30.8643521,1.91333558 31.2783891,1.91257969 31.6601797,1.91190491 L32.0983956,1.91114447 C32.1673671,1.91102768 32.2339351,1.91091673 32.2975429,1.91081292 L32.7750522,1.91010634 C32.8567222,1.91000772 32.9198696,1.90995322 32.9600399,1.90995322 C32.9925808,1.75782222 33.0502957,1.47486212 33.1097282,1.18058816 L33.1688643,0.886969398 C33.2461592,0.502253316 33.3126071,0.168247564 33.3126071,0.168247564 L36,0.168247564 L33.6567285,11.7855702 L31.4191112,11.7855702 C30.7250723,11.7855702 30.2055781,11.5798961 29.9015324,10.8219237 L25.6016706,0.168247564 L28.6427899,0.168247564 Z" id="path14"></path>
                    </g>
                    <g id="Rectangle-6-Copy">
                        <use fill-opacity="0" fill="#E5E5E5" fill-rule="evenodd" xlink:href="#path-1"></use>
                        <use fill="black" fill-opacity="1" filter="url(#filter-2)" xlink:href="#path-1"></use>
                    </g>
                </g>
            </g>
        </g>
    </g>
</svg>
